<svg width="242" height="60" viewBox="0 0 242 60" fill="none" xmlns="http://www.w3.org/2000/svg">
<path d="M11.27 8.4H0.7V-3.33786e-06H31.36V8.4H20.79V49H11.27V8.4ZM47.8942 13.23H57.1342V41.65H62.0342C63.5742 39.1767 64.3442 35.77 64.3442 31.43V13.23H73.6542V31.85C73.6542 39.7367 71.4609 45.4533 67.0742 49H61.2642C57.6709 49 54.7076 47.9267 52.3742 45.78C50.0409 47.9267 47.1709 49 43.7642 49H37.9542C33.5676 45.92 31.3742 40.2033 31.3742 31.85V13.23H40.6842V31.85C40.6842 36.0033 41.4309 39.27 42.9242 41.65H47.8942V13.23ZM79.4358 49V13.23H88.6758V49H79.4358ZM79.4358 -3.33786e-06H88.6758V9.45H79.4358V-3.33786e-06ZM96.7799 33.39V20.58H91.9499V13.23H96.7799V3.5H106.09V13.23H111.83V20.58H106.09V35.63C106.09 38.4767 106.58 40.4833 107.56 41.65H111.83V49H101.89C99.4166 46.7133 97.9233 44.24 97.4099 41.58C96.9899 39.34 96.7799 36.61 96.7799 33.39ZM124.483 30.8C124.483 32.76 124.786 34.7667 125.393 36.82C126 38.8267 126.84 40.4367 127.913 41.65H138.413V49H123.083C117.576 44.6133 114.823 38.5467 114.823 30.8C114.823 23.0533 117.763 17.1967 123.643 13.23H138.413V20.58H127.913C125.626 22.96 124.483 26.3667 124.483 30.8ZM159.388 13.23H166.038C168.092 15.8433 169.492 18.4567 170.238 21.07C170.985 23.6833 171.358 26.95 171.358 30.87V49H162.048V30.17C162.048 25.7367 161.442 22.54 160.228 20.58H152.388V49H143.078V-3.33786e-06H152.388V15.75C153.415 14.8167 154.372 14.1633 155.258 13.79C156.192 13.4167 157.568 13.23 159.388 13.23ZM177.121 49V13.23H186.361V49H177.121ZM177.121 -3.33786e-06H186.361V9.45H177.121V-3.33786e-06ZM201.745 -3.33786e-06H211.825V7.35H205.525C203.939 8.33 203.145 10.29 203.145 13.23H210.425V20.58H203.145V49H193.835V20.58H189.985V13.23H193.835C193.835 7.16333 196.472 2.75333 201.745 -3.33786e-06ZM213.825 29.33V13.23H223.135V29.4C223.135 33.46 223.952 36.8433 225.585 39.55H229.715C231.255 36.89 232.025 33.5067 232.025 29.4V13.23H241.335V28.84C241.335 32.34 240.869 35.42 239.935 38.08C239.049 40.74 237.579 43.75 235.525 47.11L230.835 54.74C229.995 56.1867 229.109 57.26 228.175 57.96C227.242 58.66 226.029 59.1733 224.535 59.5H213.475V52.15H221.035C222.015 51.87 222.832 51.38 223.485 50.68C224.139 49.98 224.815 48.9767 225.515 47.67L225.935 46.9H221.105C218.865 45.08 217.092 42.63 215.785 39.55C214.479 36.4233 213.825 33.0167 213.825 29.33Z" fill="white"/>
</svg>
